<?xml version="1.0" encoding="UTF-8" standalone="no"?>
<svg
   xmlns:dc="http://purl.org/dc/elements/1.1/"
   xmlns:cc="http://creativecommons.org/ns#"
   xmlns:rdf="http://www.w3.org/1999/02/22-rdf-syntax-ns#"
   xmlns:svg="http://www.w3.org/2000/svg"
   xmlns="http://www.w3.org/2000/svg"
   id="svg8"
   version="1.1"
   viewBox="0 0 661.27808 252.29388"
   height="252.29388mm"
   width="661.27808mm">
   <style type="text/css">
        .cookie {
            animation-name: cookie;
            animation-duration: 3s;
            animation-iteration-count: infinite;
            animation-timing-function: linear;
            transform-origin: center;
            transform-box: fill-box;
        }
        @keyframes cookie {
            from{
                transform:rotate(0deg)
            }
            to{
                transform:rotate(360deg);
            }
        }
   </style>
  <defs
     id="defs2" />
  <metadata
     id="metadata5">
    <rdf:RDF>
      <cc:Work
         rdf:about="">
        <dc:format>image/svg+xml</dc:format>
        <dc:type
           rdf:resource="http://purl.org/dc/dcmitype/StillImage" />
        <dc:title></dc:title>
      </cc:Work>
    </rdf:RDF>
  </metadata>
  <g
     transform="translate(-8.7835905,-43.097102)"
     id="layer1">
    <g
       transform="matrix(1.186149,0,0,1.186149,-243.70451,-6.7957557)"
       id="g38">
      <path
         style="fill:#f15b2b"
         class="st0"
         d="m 463.16373,142.86289 h 31.7 v 84.7 h -31.7 z"
         id="path12" />
      <path
         style="fill:#951a1d"
         class="st1"
         d="m 212.86373,44.362892 h 31.8 v 13.3 c 5.4,-8.3 15.7,-15.6 30.8,-15.6 13.1,0 21.7,4.8 26.2,14 8.6,-9.8 20,-14 32.1,-14 18.7,0 31.8,10.8 31.8,31.9 v 57.299998 h -32.1 V 77.262892 c 0,-7.6 -7.2,-12.1 -13.9,-12.1 -8.2,0 -14.5,6 -14.5,14.3 v 51.799998 h -32 V 77.262892 c 0,-7.6 -7.3,-12.1 -13.7,-12.1 -8.4,0 -14.7,6 -14.7,14.3 v 51.799998 h -31.8 z"
         id="path14" />
      <path
         style="fill:#f15b2b"
         class="st0"
         d="m 212.86373,141.96289 h 31.9 v 17.1 c 5.3,-13.1 14.6,-18.5 27.2,-18.3 v 29.8 c -17.7,-1 -27.2,4.9 -27.2,17 v 39 h -31.9 z m 93.5,32.7 c 1.3,-9.6 6.8,-14.6 14.6,-14.6 8.6,0 13,5.5 13.3,14.6 z m -0.1,16.7 h 58.8 v -7.8 c 0,-30.5 -20.3,-44.1 -44.1,-44.1 -25.9,0 -47,17 -47,44.6 v 1.3 c 0,28 19.9,43.4 47,43.4 26.2,0 40.9,-10.8 44,-29.4 h -29.9 c -1.3,4.2 -4.9,7.7 -12.9,7.7 -9.1,0 -15.1,-5.5 -15.9,-15.7 m 62.6,-5.8 v -1.3 c 0,-28.8 20.4,-44.5 45.9,-44.5 21.2,0 40.8,9.1 42.4,35.6 h -30 c -1,-6.8 -3.9,-11.2 -11.7,-11.2 -9.4,0 -14.3,6.5 -14.3,19.4 v 1.3 c 0,13.8 4.5,20.7 14.7,20.7 7.3,0 12.2,-4.5 13,-12.8 h 28.7 c -0.8,21.9 -15.2,36 -43.7,36 -25.4,0 -45,-14.4 -45,-43.2 m 194.3,-0.9 v -1.3 c 0,-13.6 -5.5,-20.1 -15.1,-20.1 -9.4,0 -14.7,7.1 -14.7,20.1 v 1.3 c 0,13.1 5.2,19.8 14.9,19.8 9.6,0 14.9,-6.8 14.9,-19.8 m -60.9,-42.7 h 31.9 v 12.3 c 4.7,-7.9 13.1,-14.6 25.9,-14.6 19.3,0 35.5,14.4 35.5,44.1 v 1.3 c 0,29.6 -16.4,43.7 -35.6,43.7 -12.5,0 -21.5,-6 -25.8,-14.3 v 40.3 h -31.9 z m 128,32.7 c 1.3,-9.6 6.8,-14.6 14.6,-14.6 8.6,0 13,5.5 13.3,14.6 z m -0.2,16.7 h 58.8 v -7.8 c 0,-30.5 -20.3,-44.1 -44.1,-44.1 -25.9,0 -47,17 -47,44.6 v 1.3 c 0,28 19.9,43.4 47,43.4 26.2,0 40.8,-10.8 44,-29.3 h -29.9 c -1.4,4.2 -4.9,7.6 -12.9,7.6 -9.1,0 -15.1,-5.5 -15.9,-15.7 m 60.6,8.1 h 29.2 c 1,5.5 3.2,8.8 10.5,8.8 6.2,0 8.9,-2.4 8.9,-6 0,-3.7 -3.6,-5.7 -14.9,-7.1 -22.8,-2.6 -32.9,-8.8 -32.9,-26.9 0,-19.4 17,-28.7 37.8,-28.7 22,0 36.8,7.3 38.7,28 h -28.7 c -1,-5 -3.7,-7.9 -9.6,-7.9 -5.8,0 -8.4,2.6 -8.4,5.8 0,3.9 3.9,5.5 13.3,6.5 24.5,2.9 35.8,8.8 35.8,27.1 0,20.9 -15.9,29.8 -39.9,29.8 -24.7,-0.1 -39.3,-10.3 -39.8,-29.4"
         id="path16" />
      <path
         style="fill:#951a1d"
         class="st1"
         d="m 396.16373,99.662892 -35.6,-57 h 36.3 l 17,30.9 13.8,-30.9 h 33.6 l -46.3,88.099998 h -34.4 z"
         id="path18" />
      <g
         transform="translate(212.86373,42.062892)"
         id="g22">
        <path
           style="fill:#f15b2b"
           class="st1 cookie"
           d="m 247.4,87.1 c 13.4,10.1 32.5,7.4 42.6,-6 6,-8 7.5,-18 4.9,-26.9 -2.2,2.2 -5.8,2.5 -8.3,0.5 -0.2,-0.1 -0.3,-0.3 -0.5,-0.5 -2,1.3 -4.7,1.2 -6.8,-0.3 -1.4,-1 -2.2,-2.5 -2.4,-4.1 -1,-0.1 -2,-0.5 -2.9,-1.1 -2.3,-1.7 -3.1,-4.9 -1.9,-7.4 -2.2,-2.2 -2.4,-5.6 -0.5,-8.1 l 0.3,-0.3 c -11.2,-2.3 -23.2,1.7 -30.5,11.5 -10.1,13.4 -7.4,32.5 6,42.7"
           id="path20">
          <title
             id="title3748">cookie</title>
        </path>
      </g>
    </g>
  </g>
  <style
     id="style10">.st0{fill:#f15b2b}.st1{fill:#951a1d}</style>
</svg>
